<svg xmlns="http://www.w3.org/2000/svg" width="33.063" height="31.284" viewBox="0 0 33.063 31.284">
    <defs>
        <linearGradient id="3h7v0wkl9a" y1=".5" x2="1" y2=".5" gradientUnits="objectBoundingBox">
            <stop offset="0" stop-color="#11dcd9"/>
            <stop offset="1" stop-color="#0cd2bb"/>
        </linearGradient>
    </defs>
    <path d="M2.421 31.283A2.465 2.465 0 0 1 0 28.921V2.323A2.316 2.316 0 0 1 .722.67 2.388 2.388 0 0 1 2.423 0H22.94a2.469 2.469 0 0 1 2.41 2.364V19.7h5.1v-.009h.2a2.526 2.526 0 0 1 2.412 2.364v4.524a4.844 4.844 0 0 1-4.884 4.708zm0-2.2h21.447a4.959 4.959 0 0 1-.751-2.548V2.384a.183.183 0 0 0 0-.042.145.145 0 0 0-.149-.132H2.434a.2.2 0 0 0-.184.184v26.515a.184.184 0 0 0 0 .042.147.147 0 0 0 .16.132zm22.885-2.59a2.744 2.744 0 0 0 5.463-.013v-4.34a.158.158 0 0 0 0-.028.151.151 0 0 0-.163-.13h-5.3zM7.057 22.646a1.176 1.176 0 0 1-1.22-1.1v-.118a1.236 1.236 0 0 1 1.19-1.2h3a1.444 1.444 0 0 1 .963.356 1.139 1.139 0 0 1 .4.856 1.3 1.3 0 0 1-1.361 1.214zm0-5.773a1.212 1.212 0 1 1 0-2.425H17.77a1.212 1.212 0 1 1 0 2.425zm0-5.779a1.21 1.21 0 0 1 0-2.419H17.77a1.212 1.212 0 0 1 0 2.423z" transform="translate(0 -.001)" style="fill:url(#3h7v0wkl9a)"/>
</svg>
