<svg xmlns="http://www.w3.org/2000/svg" width="31.277" height="31.284" viewBox="0 0 31.277 31.284">
    <defs>
        <linearGradient id="pspljjuf5a" y1=".409" x2="1" y2=".435" gradientUnits="objectBoundingBox">
            <stop offset="0" stop-color="#11dcd9"/>
            <stop offset="1" stop-color="#0cd2bb"/>
        </linearGradient>
    </defs>
    <path d="M126.065 102h-10.834a1.2 1.2 0 1 1 0-2.406h10.827a1.2 1.2 0 0 1 .006 2.406zm0 6.015h-10.834a1.2 1.2 0 1 1 0-2.406h10.827a1.2 1.2 0 0 1 .006 2.406zm0 9.63h-10.834a1.2 1.2 0 1 1 0-2.406h10.827a1.2 1.2 0 0 1 .006 2.406zm0 6.015h-10.834a1.2 1.2 0 1 1 0-2.406h10.827a1.2 1.2 0 0 1 .006 2.406zm-19.254-13.24h-7.218a3.61 3.61 0 0 1-3.609-3.609v-7.218a3.61 3.61 0 0 1 3.609-3.609h7.218a3.61 3.61 0 0 1 3.609 3.609v7.218a3.61 3.61 0 0 1-3.609 3.609zm-7.218-12.03a1.209 1.209 0 0 0-1.2 1.2v7.218a1.209 1.209 0 0 0 1.2 1.2h7.218a1.209 1.209 0 0 0 1.2-1.2v-7.215a1.209 1.209 0 0 0-1.2-1.2zm7.218 28.878h-7.218a3.61 3.61 0 0 1-3.609-3.609v-7.224a3.61 3.61 0 0 1 3.609-3.609h7.218a3.61 3.61 0 0 1 3.609 3.609v7.218a3.616 3.616 0 0 1-3.609 3.615zm-7.218-12.036a1.2 1.2 0 0 0-1.2 1.2v7.218a1.2 1.2 0 0 0 1.2 1.2h7.218a1.2 1.2 0 0 0 1.2-1.2v-7.218a1.2 1.2 0 0 0-1.2-1.2z" transform="translate(-95.984 -95.984)" style="fill:url(#pspljjuf5a)"/>
</svg>
