<svg xmlns="http://www.w3.org/2000/svg" width="31.804" height="31.183" viewBox="0 0 31.804 31.183">
    <defs>
        <linearGradient id="70oh8c47ta" y1=".413" x2="1.093" y2=".413" gradientUnits="objectBoundingBox">
            <stop offset="0" stop-color="#11dcd9"/>
            <stop offset="1" stop-color="#0cd2bb"/>
        </linearGradient>
    </defs>
    <path data-name="路径 88" d="M84.977 157.416h-.384a14.9 14.9 0 0 1-14.363-14.285A14.654 14.654 0 0 1 84.055 128a1.851 1.851 0 0 1 1.382.538 1.745 1.745 0 0 1 .691 1.383v11.6H97.8a1.8 1.8 0 0 1 1.382.614 2.028 2.028 0 0 1 .538 1.459 14.782 14.782 0 0 1-14.743 13.822zM83.825 130.3a12.433 12.433 0 1 0 13.518 13.518H85.975a2.147 2.147 0 0 1-2.151-2.151zm14.669 13.215z" transform="translate(-70.224 -126.233)" style="fill:url(#70oh8c47ta)"/>
    <path data-name="路径 89" d="M594.151 92.067h-9.985A1.787 1.787 0 0 1 582.4 90.3v-9.754a1.382 1.382 0 0 1 .538-1.152 1.744 1.744 0 0 1 1.229-.461 12.989 12.989 0 0 1 11.6 11.367 2.321 2.321 0 0 1-.384 1.229 1.813 1.813 0 0 1-1.232.538zm-.691-1.536zm-8.679-.768h8.6a10.831 10.831 0 0 0-8.6-8.449z" transform="translate(-563.96 -78.933)" style="fill:url(#70oh8c47ta)"/>
</svg>
