<svg xmlns="http://www.w3.org/2000/svg" width="31.183" height="31.183" viewBox="0 0 31.183 31.183">
    <defs>
        <linearGradient id="kg7fkqan7a" x1=".154" y1=".446" x2="1" y2=".5" gradientUnits="objectBoundingBox">
            <stop offset="0" stop-color="#11dcd9"/>
            <stop offset="1" stop-color="#0cd2bb"/>
        </linearGradient>
    </defs>
    <path d="M92.166 89.507H81.594a1.019 1.019 0 1 1 0-2.037h10.572a.979.979 0 0 1 1.019 1.019 1.1 1.1 0 0 1-1.019 1.018zm0-3.225H81.594a1.1 1.1 0 0 1-1.019-1.019.978.978 0 0 1 1.019-1.017h10.572a1.018 1.018 0 1 1 0 2.036zm-5.648-4.591a1.011 1.011 0 0 1-.7-.279l-.052-.044a13.431 13.431 0 0 0-8.159-2.751 13.569 13.569 0 0 0-13.56 13.549 1.023 1.023 0 0 1-2.045 0 15.585 15.585 0 0 1 10.024-14.547l.936-.359-.76-.652a8.314 8.314 0 1 1 10.809 0l-.761.652.937.359a15.576 15.576 0 0 1 3.689 2.023l.278.227a1.016 1.016 0 0 1 .387.8 1.026 1.026 0 0 1-1.023 1.023zm-2.643-11.386a6.269 6.269 0 1 0-6.269 6.263 6.272 6.272 0 0 0 6.269-6.263zm-2.28 20.56h10.571a.978.978 0 0 1 1.019 1.017 1.1 1.1 0 0 1-1.019 1.018H81.594a1.018 1.018 0 1 1 0-2.036z" transform="translate(-62.001 -62)" style="fill:url(#kg7fkqan7a)"/>
</svg>
