<svg xmlns="http://www.w3.org/2000/svg" width="31.344" height="31.284" viewBox="0 0 31.344 31.284">
    <defs>
        <linearGradient id="msq7j9kyna" y1=".409" x2="1.101" y2=".5" gradientUnits="objectBoundingBox">
            <stop offset="0" stop-color="#11dcd9"/>
            <stop offset="1" stop-color="#0cd2bb"/>
        </linearGradient>
    </defs>
    <path d="M123.433 127.284H99.85a3.691 3.691 0 0 1-3.85-3.429V99.429A3.691 3.691 0 0 1 99.85 96h23.643a3.691 3.691 0 0 1 3.85 3.429v24.425a3.789 3.789 0 0 1-3.91 3.43zM99.85 98.406c-.782 0-1.444.481-1.444 1.023v24.425c0 .541.662 1.023 1.444 1.023h23.643c.782 0 1.444-.481 1.444-1.023V99.429c0-.541-.662-1.023-1.444-1.023zm20.214 14.439a1.207 1.207 0 0 1-1.2-1.2v-3.61h-3.61a1.2 1.2 0 0 1 0-2.406h4.813a1.207 1.207 0 0 1 1.2 1.2v4.813a1.207 1.207 0 0 1-1.203 1.203zm-8.423 3.61a1.188 1.188 0 0 1-.842-.361l-3.369-3.369-3.369 3.369a1.191 1.191 0 0 1-1.685-1.685l4.211-4.211a1.163 1.163 0 0 1 1.685 0l3.369 3.369 7.58-7.58a1.191 1.191 0 1 1 1.685 1.685l-8.423 8.423a1.188 1.188 0 0 1-.841.36z" transform="translate(-96 -96)" style="fill:url(#msq7j9kyna)"/>
</svg>
