<svg xmlns="http://www.w3.org/2000/svg" width="30.022" height="30.019" viewBox="0 0 30.022 30.019">
    <defs>
        <linearGradient id="rau9errjba" y1=".5" x2="1" y2=".5" gradientUnits="objectBoundingBox">
            <stop offset="0" stop-color="#11dcd9"/>
            <stop offset="1" stop-color="#0cd2bb"/>
        </linearGradient>
    </defs>
    <path data-name="路径 86" d="M71.8 153.982a3.008 3.008 0 0 1-2.238-.951 3.1 3.1 0 0 1-.86-2.451v-20.952l.014-.8a2.922 2.922 0 0 1 .921-2.052 3.221 3.221 0 0 1 2.2-.877h4.253a.933.933 0 0 1-.017 1.866h-3.9a1.648 1.648 0 0 0-1.114.494 1.431 1.431 0 0 0-.42 1.016v1.507a1.025 1.025 0 0 0 .01.135 1.57 1.57 0 0 0 .444.87 1.518 1.518 0 0 0 1.124.464H95.58a3.253 3.253 0 0 1 2.2.867 2.931 2.931 0 0 1 .938 2.076v15.724A2.945 2.945 0 0 1 97.89 153a3.059 3.059 0 0 1-2.258.979zm-1.165-3.423a1.526 1.526 0 0 0 .535 1.161 1.562 1.562 0 0 0 1.039.383h23a1.567 1.567 0 0 0 1.1-.44 1.486 1.486 0 0 0 .467-.965v-15.026a1.518 1.518 0 0 0-.464-1.09 1.609 1.609 0 0 0-1.111-.45H71.842a3.148 3.148 0 0 1-1.026-.166l-.179-.061v16.655z" transform="translate(-68.7 -123.963)" style="fill:url(#rau9errjba)"/>
    <path data-name="路径 87" d="M354 94.1a.962.962 0 1 1 0-1.923h8.014a.962.962 0 1 1 0 1.923zm5.3-18.91a1.269 1.269 0 0 1-1.012-.677l-.058-.112-.024.01-1.852-2.8a.784.784 0 0 0-.44-.43.757.757 0 0 0-.274-.051.747.747 0 0 0-.349.085h-.007l-5.684 3.664a1.4 1.4 0 0 1-.62.213h-.017a1.026 1.026 0 0 1-1.063-.982 1.006 1.006 0 0 1 .576-.907h.007l6.66-4.31a1.7 1.7 0 0 1 .772-.19 1.736 1.736 0 0 1 .609.115 1.658 1.658 0 0 1 .931.9l2.611 3.89v.007a1.006 1.006 0 0 1 .234.64.945.945 0 0 1-1.007.939zm6.762-.217a.953.953 0 0 1-.965-.938v-.074a1.311 1.311 0 0 0-.389-1.036 1.538 1.538 0 0 0-1.111-.413h-.964a.938.938 0 1 1 0-1.876h1.26a3.027 3.027 0 0 1 2.157.826 2.951 2.951 0 0 1 .982 1.825v.752a.947.947 0 0 1-.977.938z" transform="translate(-338.447 -68.7)" style="fill:url(#rau9errjba)"/>
</svg>
