<svg xmlns="http://www.w3.org/2000/svg" width="26.226" height="32.032" viewBox="0 0 26.226 32.032">
    <defs>
        <linearGradient id="b6ii9sv3ca" x1=".053" y1=".564" x2="1" y2=".564" gradientUnits="objectBoundingBox">
            <stop offset="0" stop-color="#11dcd9"/>
            <stop offset="1" stop-color="#0cd2bb"/>
        </linearGradient>
    </defs>
    <path data-name="路径 47" d="M193.988 184.545h-22.366a1.929 1.929 0 0 1-1.788-2.653l1.826-4.508v-6.849a10.585 10.585 0 0 1 .85-4.171 10.831 10.831 0 0 1 5.714-5.714 10.585 10.585 0 0 1 4.171-.85h.026a10.585 10.585 0 0 1 4.171.85 10.831 10.831 0 0 1 5.714 5.714 10.585 10.585 0 0 1 .85 4.171v6.765l2.5 4.356a1.929 1.929 0 0 1-1.67 2.89zm-21.706-2.375h20.934l-2.438-4.237v-7.4a8.386 8.386 0 0 0-8.36-8.36h-.026a8.387 8.387 0 0 0-8.36 8.36v7.313z" transform="translate(-169.692 -156.939)" style="fill:url(#b6ii9sv3ca)"/>
    <path data-name="路径 48" d="M347.969 88.269a1.049 1.049 0 0 1-1.032-.868 4.008 4.008 0 1 1 7.955-.694 4.383 4.383 0 0 1-.059.694 1.05 1.05 0 0 1-1.2.853l-2.108-.341a3.9 3.9 0 0 0-1.28 0l-2.108.341a.847.847 0 0 1-.168.015zm2.913-2.5a6.144 6.144 0 0 1 .976.078l.787.126a1.911 1.911 0 0 0-3.525 0l.787-.126a6.213 6.213 0 0 1 .975-.082zm5.443 28.967h-10.438a1.187 1.187 0 0 1 0-2.375h10.437a1.187 1.187 0 0 1 0 2.375z" transform="translate(-338.206 -82.7)" style="fill:url(#b6ii9sv3ca)"/>
</svg>
