<svg xmlns="http://www.w3.org/2000/svg" width="28.07" height="28.07" viewBox="0 0 28.07 28.07">
    <g data-name="qianbao">
        <path data-name="路径 7" d="M110.6 113.4H88.141a2.807 2.807 0 0 1-2.807-2.807V88.141a2.807 2.807 0 0 1 2.807-2.807h19.649a2.807 2.807 0 0 1 2.807 2.807v2.105a2.807 2.807 0 0 1 2.807 2.807V110.6a2.807 2.807 0 0 1-2.804 2.8zm-2.105-25.263a.7.7 0 0 0-.7-.7H88.141a.7.7 0 0 0-.7.7v2.105h21.053v-2.101zm2.805 10.53h-6.667a3.158 3.158 0 1 0 0 6.316h6.667v-6.316zm0 8.421h-6.667a5.263 5.263 0 1 1 0-10.526h6.667v-3.509a.7.7 0 0 0-.7-.7H87.439V110.6a.7.7 0 0 0 .7.7H110.6a.7.7 0 0 0 .7-.7z" transform="translate(-85.334 -85.334)" style="fill:#dedff6"/>
        <path data-name="路径 8" d="M661.334 535.088a1.754 1.754 0 1 0 1.754-1.754 1.754 1.754 0 0 0-1.754 1.754z" transform="translate(-642.387 -518.597)" style="fill:#dedff6"/>
    </g>
</svg>
