<svg xmlns="http://www.w3.org/2000/svg" width="30.031" height="30.019" viewBox="0 0 30.031 30.019">
    <defs>
        <linearGradient id="4xqf2zihja" y1=".5" x2="1.249" y2=".5" gradientUnits="objectBoundingBox">
            <stop offset="0" stop-color="#11dcd9"/>
            <stop offset="1" stop-color="#0cd2bb"/>
        </linearGradient>
    </defs>
    <path data-name="路径 9" d="m493.625 50.086-.014-2.416s.212-1.715-1.955-1.715h-16.642a1.36 1.36 0 0 0-1.456 1.4V68.3a1.848 1.848 0 0 0 1.828 1.7h4.253a1.07 1.07 0 0 1 .862 1.065.86.86 0 0 1-.801.935l-5.327-.009s-2.821-.509-2.836-3.179-.014-21.244-.014-21.244a3.281 3.281 0 0 1 3.6-3.618c3.943 0 17.287.028 17.287.028s3.109.024 3.161 2.887.047 3.283.047 3.283-.118.933-.97.933a1.071 1.071 0 0 1-1.017-.994z" transform="translate(-471.511 -43.949)" style="fill:url(#4xqf2zihja)"/>
    <path data-name="路径 10" d="M1040.535 485.314v4.051a1.257 1.257 0 0 0 .386.914c.429.447 3.947 4.013 3.947 4.013a1.1 1.1 0 0 0 1.239-.231c.565-.565-.08-1.324-.08-1.324l-3.274-3.457s-.24-.155-.24-.8-.009-3.175-.009-3.175-.269-.834-.947-.834a1.018 1.018 0 0 0-1.022.838z" transform="translate(-1022.42 -470.453)" style="fill:url(#4xqf2zihja)"/>
    <path data-name="路径 11" d="M640.665 236.708a9.962 9.962 0 1 0 9.962 9.962 9.963 9.963 0 0 0-9.962-9.962zm0 17.994a8.031 8.031 0 1 1 8.031-8.031 8.029 8.029 0 0 1-8.031 8.031zm-11.682-14.065h-2.694a.793.793 0 0 1-.791-.791v-.424a.793.793 0 0 1 .791-.791h2.694a.793.793 0 0 1 .791.791v.424a.793.793 0 0 1-.79.791zm10.033-6.01h-12.722a.793.793 0 0 1-.791-.791v-.424a.793.793 0 0 1 .791-.791h12.723a.793.793 0 0 1 .791.791v.424a.793.793 0 0 1-.791.791z" transform="translate(-620.596 -226.615)" style="fill:url(#4xqf2zihja)"/>
</svg>
