<svg xmlns="http://www.w3.org/2000/svg" width="30.031" height="32.032" viewBox="0 0 30.031 32.032">
    <defs>
        <linearGradient id="4vgcgwm41a" x1=".054" y1=".457" x2="1" y2=".463" gradientUnits="objectBoundingBox">
            <stop offset="0" stop-color="#11dcd9"/>
            <stop offset="1" stop-color="#0cd2bb"/>
        </linearGradient>
    </defs>
    <path d="M149.465 124.276a1.2 1.2 0 0 0 .783.294 1.185 1.185 0 0 0 1.195-1.175 1.161 1.161 0 0 0-.494-.947.033.033 0 0 0 0-.013 13.671 13.671 0 0 0-3.627-1.9 9.656 9.656 0 0 0-5.126-17.978 9.817 9.817 0 0 0-9.889 9.731 9.539 9.539 0 0 0 4.7 8.247c-8.141 2.907-8.864 11.153-8.864 11.272a1.116 1.116 0 0 0 1.085 1.245 1.211 1.211 0 0 0 1.327-1.068c0-.416.9-9.433 11.516-10.027a12.518 12.518 0 0 1 7.384 2.321zm-7.267-4.692a7.329 7.329 0 1 1 7.477-7.3 7.415 7.415 0 0 1-7.475 7.3zm14.255 4.04a2.568 2.568 0 0 0-.632-.082 2.408 2.408 0 0 0-.68 4.7 8.979 8.979 0 0 1-2.9 2.984 2.349 2.349 0 0 0-2.162-1.441 2.375 2.375 0 0 0-2.353 2.4 1.64 1.64 0 0 0 .051.45 2.352 2.352 0 0 0 2.273 1.951 3.284 3.284 0 0 0 1.318-.286 10.509 10.509 0 0 0 6.7-7.643 3.935 3.935 0 0 0 .1-.716 2.41 2.41 0 0 0-1.716-2.317z" transform="translate(-128.143 -102.557)" style="fill:url(#4vgcgwm41a)"/>
</svg>
