<svg xmlns="http://www.w3.org/2000/svg" width="31.562" height="31.562" viewBox="0 0 31.562 31.562">
    <defs>
        <linearGradient id="h3zzcf25ca" y1=".5" x2="1" y2=".5" gradientUnits="objectBoundingBox">
            <stop offset="0" stop-color="#11dcd9"/>
            <stop offset="1" stop-color="#0cd2bb"/>
        </linearGradient>
    </defs>
    <path data-name="地图组织站点,层级,下级,组织架构布局" d="M28.6 21.606a.5.5 0 0 1-.493-.493V18.74a2.96 2.96 0 0 0-2.959-2.959H17.26a.5.5 0 0 1-.493-.493v-2.959a.5.5 0 0 1 .493-.493h1.48a2.96 2.96 0 0 0 2.96-2.959V2.959A2.96 2.96 0 0 0 18.74 0h-5.918a2.96 2.96 0 0 0-2.959 2.959v5.918a2.96 2.96 0 0 0 2.959 2.959H14.3a.5.5 0 0 1 .493.493v2.959a.5.5 0 0 1-.493.493H6.411a2.96 2.96 0 0 0-2.959 2.959v2.373a.5.5 0 0 1-.493.493A2.96 2.96 0 0 0 0 24.565V28.6a2.96 2.96 0 0 0 2.959 2.959h2.959A2.96 2.96 0 0 0 8.877 28.6v-4.035a2.96 2.96 0 0 0-2.959-2.959.5.5 0 0 1-.493-.493V18.74a.985.985 0 0 1 .986-.986H14.3a.5.5 0 0 1 .493.493v2.9a.462.462 0 0 1-.462.462H14.3a2.96 2.96 0 0 0-2.959 2.959V28.6a2.96 2.96 0 0 0 2.959 2.962h2.96a2.96 2.96 0 0 0 2.959-2.962v-4.035a2.96 2.96 0 0 0-2.959-2.959h-.031a.462.462 0 0 1-.462-.462v-2.9a.5.5 0 0 1 .493-.493h7.89a.985.985 0 0 1 .986.986v2.373a.5.5 0 0 1-.493.493 2.96 2.96 0 0 0-2.959 2.959V28.6a2.96 2.96 0 0 0 2.959 2.959H28.6a2.96 2.96 0 0 0 2.962-2.959v-4.035a2.96 2.96 0 0 0-2.962-2.959zM5.918 23.579a.989.989 0 0 1 .986.986V28.6a.989.989 0 0 1-.986.986H2.959a.989.989 0 0 1-.986-.986v-4.035a.989.989 0 0 1 .986-.986zm11.342 0a.989.989 0 0 1 .986.986V28.6a.989.989 0 0 1-.986.986H14.3a.989.989 0 0 1-.986-.986v-4.035a.989.989 0 0 1 .986-.986zM12.822 9.863a.989.989 0 0 1-.986-.986V2.959a.989.989 0 0 1 .986-.986h5.918a.989.989 0 0 1 .986.986v5.918a.989.989 0 0 1-.986.986zM29.589 28.6a.989.989 0 0 1-.986.986h-2.959a.989.989 0 0 1-.986-.986v-4.035a.989.989 0 0 1 .986-.986H28.6a.989.989 0 0 1 .986.986z" style="fill:url(#h3zzcf25ca)"/>
</svg>
