<svg xmlns="http://www.w3.org/2000/svg" width="30.129" height="30.129" viewBox="0 0 30.129 30.129">
    <path data-name="路径 16" d="M24.651 0H5.478A5.494 5.494 0 0 0 0 5.478v19.173a5.494 5.494 0 0 0 5.478 5.478h19.173a5.494 5.494 0 0 0 5.478-5.478V5.478A5.494 5.494 0 0 0 24.651 0zm3 19.173h-7.108a4.108 4.108 0 1 1 0-8.217h7.112v8.217zM20.543 8.585a6.2 6.2 0 0 0-6.416 6.48 6.334 6.334 0 0 0 6.416 6.635h7.112v2.947a3.261 3.261 0 0 1-3 3.045H5.478a3.319 3.319 0 0 1-3.064-3.045V5.478a3.567 3.567 0 0 1 3.064-3.294h19.173a3.511 3.511 0 0 1 3 3.294v3.107h-7.108z" style="fill:#52636f"/>
    <path data-name="路径 17" d="M628.364 443.929a1.748 1.748 0 1 0 1.748-1.748 1.748 1.748 0 0 0-1.748 1.748z" transform="translate(-609.876 -428.865)" style="fill:#52636f"/>
</svg>
