<svg xmlns="http://www.w3.org/2000/svg" width="26.653" height="30.129" viewBox="0 0 26.653 30.129">
    <path data-name="路径 82" d="M132.774 68.267c-4 0-6.579 1.687-7.814 4.533a11.069 11.069 0 0 0-.743 5.563l.023.2a10.878 10.878 0 0 0 2.338 5.247l.072.084-6.35 5.328a2.318 2.318 0 0 0-.833 1.778v5.081a2.318 2.318 0 0 0 2.318 2.318H143.8a2.318 2.318 0 0 0 2.318-2.318v-5.218a2.318 2.318 0 0 0-.829-1.643L139 83.977l.1-.106a10.9 10.9 0 0 0 1.6-11.266c-1.3-2.737-3.924-4.338-7.926-4.338zm0 2.318c3.121 0 4.921 1.1 5.828 3.013a8.306 8.306 0 0 1 .6 4.494 7.663 7.663 0 0 1-2.646 5.009 1.159 1.159 0 0 0-.041 1.812L143.8 91v5.079h-22.015V91l7.335-6.154a1.159 1.159 0 0 0-.03-1.8 8.127 8.127 0 0 1-2.567-4.914 8.9 8.9 0 0 1 .563-4.407c.866-2 2.607-3.138 5.687-3.138z" transform="translate(-119.467 -68.267)" style="fill:#52636f"/>
    <path data-name="路径 83" d="M480.184 615.558v5.794h-2.318v-5.794a1.159 1.159 0 0 1 2.318 0z" transform="translate(-465.699 -595.859)" style="fill:#52636f"/>
</svg>
