<svg xmlns="http://www.w3.org/2000/svg" width="27" height="30.129" viewBox="0 0 27 30.129">
    <path data-name="路径 14" d="m131.432 80.273-11.171 9.855a2.348 2.348 0 0 0-.795 1.761v15.578a2.348 2.348 0 0 0 2.348 2.348h22.3a2.348 2.348 0 0 0 2.348-2.348v-15.58a2.348 2.348 0 0 0-.792-1.758l-11.134-9.854a2.348 2.348 0 0 0-3.109 0zm-9.618 11.616 11.171-9.856 11.133 9.854v15.58h-22.3z" style="fill:#52636f" transform="translate(-119.467 -79.686)"/>
    <path data-name="路径 15" d="M480.214 564.374V572h-2.348v-7.63a1.174 1.174 0 0 1 2.348 0z" transform="translate(-465.541 -546.571)" style="fill:#52636f"/>
</svg>
