<svg xmlns="http://www.w3.org/2000/svg" width="24.075" height="24.075" viewBox="0 0 24.075 24.075">
    <path data-name="路径 30" d="M77.537 88.375a12 12 0 1 1 4.686-.947 11.937 11.937 0 0 1-4.686.947zm0-22.568a10.511 10.511 0 1 0 4.1.828 10.425 10.425 0 0 0-4.1-.829z" style="fill:#8e9faa" transform="translate(-65.5 -64.3)"/>
    <path data-name="路径 31" d="M485.753 268.839a.752.752 0 0 1-.753-.753v-7.932a.753.753 0 0 1 1.506 0v7.93a.754.754 0 0 1-.753.755z" transform="translate(-473.716 -254.152)" style="fill:#8e9faa"/>
    <path data-name="路径 32" d="M473.6 668.76a1.06 1.06 0 1 0 1.06-1.06 1.06 1.06 0 0 0-1.06 1.06z" transform="translate(-462.623 -651.469)" style="fill:#8e9faa"/>
</svg>
