<svg xmlns="http://www.w3.org/2000/svg" width="32.032" height="32.067" viewBox="0 0 32.032 32.067">
    <defs>
        <linearGradient id="bdf1yhagua" x1=".5" x2=".5" y2="1" gradientUnits="objectBoundingBox">
            <stop offset="0" stop-color="#0cd2bb"/>
            <stop offset="1" stop-color="#11dcd9"/>
        </linearGradient>
    </defs>
    <path data-name="qiehuan" d="M37.894 22.62a16.016 16.016 0 1 0 16.033 16.016A16.024 16.024 0 0 0 37.894 22.62zm-9.813 13.522c0-.006 0-.016-.008-.023l-.01-.039v-.02l-.01-.043v-.022c0-.006 0-.031-.006-.043s0-.017 0-.027v-.039a.15.15 0 0 1 0-.033.124.124 0 0 1 0-.037.384.384 0 0 1 0-.065v-.131a.129.129 0 0 1 0-.039v-.027a.183.183 0 0 1 .006-.042.224.224 0 0 1 0-.023l.01-.043a.035.035 0 0 1 0-.02l.01-.039c0-.006 0-.016.007-.022s.01-.025.013-.037l.01-.027c0-.01.01-.022.012-.032l.012-.029a.317.317 0 0 1 .012-.03.11.11 0 0 1 .015-.033.244.244 0 0 0 .012-.022.124.124 0 0 1 .017-.037.067.067 0 0 0 .013-.02c.006-.014.014-.023.021-.037a.076.076 0 0 0 .012-.018c.007-.014.017-.025.025-.037a.106.106 0 0 1 .014-.02l.027-.037.016-.02a.232.232 0 0 1 .024-.029c.007-.01.017-.016.025-.026l.02-.023.048-.049 3.25-3.159a1.416 1.416 0 0 1 1.964 0 1.321 1.321 0 0 1 0 1.907l-.882.856h13.532a1.351 1.351 0 1 1 0 2.7H29.277a.167.167 0 0 1-.041 0h-.027a.215.215 0 0 1-.043-.006h-.025l-.043-.01a.111.111 0 0 1-.025-.006l-.039-.01c-.008 0-.018 0-.025-.008l-.037-.012-.027-.011-.035-.012-.029-.031-.031-.014a.1.1 0 0 1-.033-.014.107.107 0 0 0-.025-.012.151.151 0 0 1-.037-.017.075.075 0 0 0-.021-.012l-.037-.02a.067.067 0 0 0-.021-.012l-.037-.025c-.013-.008-.013-.01-.02-.012l-.037-.027-.021-.015-.031-.025c-.01-.006-.016-.016-.026-.022l-.025-.02c-.016-.017-.033-.03-.051-.047s-.031-.033-.047-.049a.171.171 0 0 1-.02-.024c-.008-.01-.019-.016-.025-.026s-.017-.02-.024-.03l-.017-.02a.235.235 0 0 1-.028-.037.151.151 0 0 0-.012-.018c-.007-.013-.017-.025-.025-.037a.072.072 0 0 1-.012-.02l-.018-.035-.013-.021a.141.141 0 0 0-.017-.034.107.107 0 0 1-.013-.025.334.334 0 0 0-.013-.032.3.3 0 0 0-.014-.029l-.01-.031-.02-.038-.01-.025a.142.142 0 0 1-.013-.037zm19.675 5.442v.066a.149.149 0 0 1 0 .039v.026a.194.194 0 0 1-.006.043v.022l-.01.043a.036.036 0 0 1 0 .02l-.01.039c0 .008 0 .017-.008.024s-.01.023-.013.036a.2.2 0 0 1-.01.027l-.033.031-.012.029a.287.287 0 0 1-.012.03.094.094 0 0 1-.015.032.133.133 0 0 0-.012.023.206.206 0 0 1-.017.037.106.106 0 0 0-.014.018.373.373 0 0 1-.021.037.077.077 0 0 0-.012.02c-.007.012-.017.023-.025.037a.141.141 0 0 1-.014.018.431.431 0 0 1-.027.037l-.016.02a.2.2 0 0 1-.025.03c-.01.01-.016.02-.027.029s-.013.017-.02.023l-.048.049-3.249 3.164a1.413 1.413 0 0 1-1.961 0 1.321 1.321 0 0 1 0-1.907l.881-.856H29.487a1.351 1.351 0 1 1 0-2.7H46.506a.149.149 0 0 1 .041 0h.027a.194.194 0 0 1 .043.006.228.228 0 0 1 .025 0l.043.01a.069.069 0 0 1 .025.006l.041.01c.008 0 .017 0 .025.008l.037.012.026.011.035.012.031.01.029.013a.081.081 0 0 1 .033.014.142.142 0 0 0 .025.012.141.141 0 0 1 .037.017.075.075 0 0 0 .021.012l.037.02a.064.064 0 0 0 .021.012l.037.025c.013.008.014.01.021.012l.037.027.02.015a.254.254 0 0 1 .031.025c.01.006.017.016.026.022l.025.02.051.047.048.049a.164.164 0 0 1 .02.023.33.33 0 0 1 .023.026l.025.03.016.02a.184.184 0 0 1 .028.037c0 .006.01.012.012.018s.017.025.025.037a.067.067 0 0 1 .013.02.376.376 0 0 0 .021.036.1.1 0 0 1 .012.021.136.136 0 0 0 .017.034.114.114 0 0 1 .013.025l.014.032c0 .01.01.02.012.029l.012.031.012.033.011.025a.112.112 0 0 1 .012.037c0 .006 0 .016.008.023l.01.039a.038.038 0 0 0 0 .02l.01.043v.022c0 .006 0 .031.006.043s0 .017 0 .027v.039a.1.1 0 0 1 0 .032.179.179 0 0 1 0 .033.382.382 0 0 1 0 .066c.024.043.02.063.02.086z" transform="rotate(90 38.256 16.396)" style="fill:url(#bdf1yhagua)"/>
</svg>
