<svg xmlns="http://www.w3.org/2000/svg" width="33.828" height="34.548" viewBox="0 0 33.828 34.548">
    <path data-name="路径 80" d="M478.618 273.766h2.308v24.524h-2.308z" transform="translate(-462.857 -265.215)" style="fill:#f6d8a0"/>
    <path data-name="路径 81" d="M90.5 53.26h-6.449l.571-.821a4.028 4.028 0 1 0-6.84-4.233l-1.882 3.45-1.885-3.45a4.028 4.028 0 1 0-6.84 4.233l.571.821H61.29a2.309 2.309 0 0 0-2.308 2.308v7.315a2.309 2.309 0 0 0 2.308 2.307h1.03v13.159a2.309 2.309 0 0 0 2.308 2.308h22.536a2.309 2.309 0 0 0 2.308-2.308V65.19H90.5a2.309 2.309 0 0 0 2.308-2.308v-7.315A2.309 2.309 0 0 0 90.5 53.26zm-10.7-3.946a1.721 1.721 0 1 1 2.921 1.81l-1.488 2.138h-3.582l2.156-3.948zm-10.74 1.808a1.721 1.721 0 1 1 2.921-1.81l2.158 3.946h-3.59l-1.488-2.136zm18.1 27.228H64.628V65.19h22.536zm2.306-15.467H61.29v-7.316H90.5v7.315h-1.028z" transform="translate(-58.982 -46.109)" style="fill:#f6d8a0"/>
</svg>
