<svg xmlns="http://www.w3.org/2000/svg" width="31.577" height="33.831" viewBox="0 0 31.577 33.831">
    <path data-name="路径 75" d="M51.507 48.293A4.511 4.511 0 0 1 47 43.782V18.973a4.511 4.511 0 0 1 4.511-4.511h22.551a4.511 4.511 0 0 1 4.511 4.511v4.511h-2.256v-4.511a2.255 2.255 0 0 0-2.255-2.255H51.507a2.256 2.256 0 0 0-2.256 2.255v24.809a2.256 2.256 0 0 0 2.256 2.256h22.555a2.256 2.256 0 0 0 2.255-2.256v-4.511h2.255v4.511a4.511 4.511 0 0 1-4.511 4.511zm0 0" style="fill:#f6d8a0" transform="translate(-46.996 -14.462)"/>
    <path data-name="路径 76" d="M579.721 276.362a1.128 1.128 0 1 1 1.6-1.595l7.781 7.78a1.3 1.3 0 0 1 0 1.708l-7.781 7.78a1.128 1.128 0 1 1-1.6-1.595l5.913-5.913h-8.71a1.128 1.128 0 0 1 0-2.255h8.71l-5.913-5.911zm0 0" transform="translate(-557.842 -265.611)" style="fill:#f6d8a0"/>
    <path data-name="路径 77" d="M145.689 285.552v-1.711h-3.326q-1.047 0-1.045-.76t1.045-.855h2.281l-3.9-5.987c-.064 0-.128-.062-.19-.19a1.341 1.341 0 0 1-.19-.76q0-.664.855-.855a1.792 1.792 0 0 1 1.14.665l4.372 6.557 4.371-6.557a1.521 1.521 0 0 1 1.141-.665 1.009 1.009 0 0 1 .855.855 1.625 1.625 0 0 1-.285.76.275.275 0 0 0-.1.19l-3.9 5.987h2.281q.949.1 1.045.855-.1.762-1.045.76h-3.314v1.71h3.326q.949.1 1.045.855c-.064.508-.413.76-1.045.76h-3.326v3.8a.941.941 0 0 1-1.045.95q-1.047 0-1.045-.95v-3.8h-3.326c-.7 0-1.045-.252-1.045-.76s.347-.792 1.045-.855h3.326zm0 0" transform="translate(-137.197 -265.607)" style="fill:#f6d8a0"/>
</svg>
