<svg xmlns="http://www.w3.org/2000/svg" width="32.765" height="34.189" viewBox="0 0 32.765 34.189">
    <path data-name="路径 73" d="M49.311 0h-23.29a4.737 4.737 0 0 0-4.737 4.737V33a1.184 1.184 0 0 0 1.808 1.011l6.6-4.058 7.453 4.09a1.184 1.184 0 0 0 1.247-.095l5.661-4.011 8.29 4.105A1.184 1.184 0 0 0 54.048 33V4.737A4.737 4.737 0 0 0 49.311 0zm2.369 31.091-7.208-3.576a1.184 1.184 0 0 0-1.208.095l-5.637 3.97-7.406-4.066a1.184 1.184 0 0 0-1.192 0l-5.377 3.371V4.737a2.369 2.369 0 0 1 2.369-2.369h23.29a2.369 2.369 0 0 1 2.369 2.369z" transform="translate(-21.284)" style="fill:#f6d8a0"/>
    <path data-name="路径 74" d="M189.662 205.723H180.9a1.184 1.184 0 1 0 0 2.368h8.764a1.184 1.184 0 1 0 0-2.368zm0 6.079H180.9a1.184 1.184 0 0 0 0 2.369h8.764a1.184 1.184 0 0 0 0-2.369zm11.606 5.605a1.184 1.184 0 1 0 0-2.368h-2.274l1.926-1.926a1.184 1.184 0 0 0-1.674-1.674l-1.532 1.532-1.532-1.532a1.184 1.184 0 0 0-1.674 1.674l1.926 1.926h-2.274a1.184 1.184 0 1 0 0 2.368h2.369v1.579h-2.369a1.184 1.184 0 0 0 0 2.369h2.369v1.974a1.184 1.184 0 1 0 2.369 0v-1.974h2.369a1.184 1.184 0 1 0 0-2.369H198.9v-1.579z" transform="translate(-174.425 -198.854)" style="fill:#f6d8a0"/>
</svg>
