<svg xmlns="http://www.w3.org/2000/svg" width="40.348" height="34.548" viewBox="0 0 40.348 34.548">
    <path data-name="路径 78" d="M294.4 549.78a1.491 1.491 0 0 1 1.429-1.513H309.7a1.429 1.429 0 1 1 0 2.858h-13.787a1.373 1.373 0 0 1-1.513-1.345z" transform="translate(-282.8 -529.522)" style="fill:#f6d8a0"/>
    <path data-name="路径 79" d="M39.087 104.139h-1.261V86.487a5.058 5.058 0 0 0-5.043-5.044h-1.765v-7.4a1.491 1.491 0 0 0-1.429-1.513 1.507 1.507 0 0 0-1.513 1.513v7.313h-6.641v-7.31a1.513 1.513 0 0 0-3.026 0v7.313H11.6v-7.313a1.513 1.513 0 0 0-3.026 0v7.313H7.565A5.058 5.058 0 0 0 2.522 86.4v17.652H1.261A1.436 1.436 0 0 0 0 105.4v.42a1.293 1.293 0 0 0 1.261 1.261h37.826a1.293 1.293 0 0 0 1.261-1.261v-.42a1.293 1.293 0 0 0-1.261-1.261zm-33.623 0V86.487a2.081 2.081 0 0 1 2.1-2.1h25.219a2.081 2.081 0 0 1 2.1 2.1v17.652H5.464z" style="fill:#f6d8a0" transform="translate(0 -72.533)"/>
</svg>
