<svg xmlns="http://www.w3.org/2000/svg" width="35.431" height="34.548" viewBox="0 0 35.431 34.548">
    <path d="M55.188 58.16a17.273 17.273 0 0 1 23.6 6.321l-.009-.014a1.2 1.2 0 0 1-2.079 1.216 14.867 14.867 0 1 0 .655 13.589l-.019.035-1.853-.825a.442.442 0 0 1-.165-.127l-.057-.089a.443.443 0 0 1 .214-.589l4.446-2.077a.443.443 0 0 1 .611.273l1.43 4.691a.443.443 0 0 1-.6.533l-1.821-.809a17.272 17.272 0 1 1-24.353-22.13zm13.748 6.4a1.2 1.2 0 0 1 .441 1.643l-2.011 3.475H70a1.2 1.2 0 0 1 0 2.407h-4.811v2.406H70a1.2 1.2 0 0 1 0 2.407h-4.811V81.7a1.2 1.2 0 0 1-2.406 0v-4.808h-4.806a1.2 1.2 0 0 1 0-2.406h4.811v-2.405h-4.811a1.2 1.2 0 1 1 0-2.406h1.7L57.671 66.2a1.2 1.2 0 0 1 .292-1.544l.147-.1a1.2 1.2 0 0 1 1.644.444l2.7 4.678h2.136L67.293 65a1.2 1.2 0 0 1 1.643-.439z" transform="translate(-46.55 -55.842)" style="fill:#f6d8a0"/>
</svg>
