<svg xmlns="http://www.w3.org/2000/svg" width="31.408" height="34.189" viewBox="0 0 31.408 34.189">
    <path d="M123.194 72.153a5.476 5.476 0 0 0 1.254-3.245c0-1.751-1.067-4.687-8.21-4.687-3.067 0-8.211.609-8.211 4.687a5.476 5.476 0 0 0 1.254 3.245c-5.235 3.444-8.748 10.045-8.748 13.99 0 7.451 6.164 12.267 15.7 12.267s15.7-4.816 15.7-12.267c.008-3.943-3.504-10.543-8.739-13.99zm-6.956 23.916c-7.381 0-13.364-3.171-13.364-9.926 0-3.857 4.62-11.6 10.685-13.476-1.854-.911-3.192-2.58-3.192-3.759 0-1.7 2.628-2.346 5.871-2.346s5.87.65 5.87 2.346c0 1.179-1.336 2.848-3.192 3.759 6.065 1.875 10.685 9.619 10.685 13.476-.001 6.757-5.983 9.926-13.363 9.926zm3.706-12.354a1.17 1.17 0 0 0 0-2.341h-1.614l1.793-1.793a1.17 1.17 0 0 0-1.655-1.655l-2.217 2.217-2.217-2.217a1.17 1.17 0 0 0-1.655 1.655l1.793 1.793h-1.641a1.17 1.17 0 1 0 0 2.341h2.535v1.275h-2.641a1.17 1.17 0 0 0 0 2.341h2.641v2.236a1.17 1.17 0 0 0 2.34 0v-2.236h2.431a1.17 1.17 0 1 0 0-2.341h-2.431v-1.275z" transform="translate(-100.533 -64.221)" style="fill:#f6d8a0"/>
</svg>
