<svg xmlns="http://www.w3.org/2000/svg" width="26.647" height="26.647" viewBox="0 0 26.647 26.647">
  <path id="金币_1_" data-name="金币 (1)" d="M77.324,90.647A13.324,13.324,0,1,1,90.647,77.324,13.363,13.363,0,0,1,77.324,90.647Zm0-24.744a11.42,11.42,0,1,0,11.42,11.42A11.454,11.454,0,0,0,77.324,65.9Zm0,19.985a.954.954,0,0,1-.952-.952V76.372a.952.952,0,0,1,1.9,0v8.565A.954.954,0,0,1,77.324,85.889Zm4.758-3.807H72.565a.952.952,0,0,1,0-1.9h9.517a.952.952,0,0,1,0,1.9Zm0-4.758H72.565a.952.952,0,0,1,0-1.9h9.517a.952.952,0,0,1,0,1.9Zm-4.758,0a.94.94,0,0,1-.666-.286l-4.711-4.711a.942.942,0,0,1,1.332-1.332l4.711,4.711a.92.92,0,0,1,0,1.332A.939.939,0,0,1,77.324,77.324Zm0,0a.94.94,0,0,1-.666-.286.92.92,0,0,1,0-1.332l4.711-4.711A.942.942,0,0,1,82.7,72.327L77.99,77.038A.939.939,0,0,1,77.324,77.324Z" transform="translate(-64 -64)" fill="#fff"/>
</svg>
